<?xml version="1.0" standalone="no"?>
<!DOCTYPE svg PUBLIC "-//W3C//DTD SVG 20010904//EN"
 "http://www.w3.org/TR/2001/REC-SVG-20010904/DTD/svg10.dtd">
<svg version="1.0" xmlns="http://www.w3.org/2000/svg"
 width="300.000000pt" height="300.000000pt" viewBox="0 0 300.000000 300.000000"
 preserveAspectRatio="xMidYMid meet">
<metadata>
Created by potrace 1.11, written by Peter Selinger 2001-2013
</metadata>
<g transform="translate(0.000000,300.000000) scale(0.100000,-0.100000)"
fill="#000000" stroke="none">
<path d="M1406 2732 c-35 -4 -60 -20 -145 -89 -68 -56 -97 -105 -108 -180 -7
-54 25 -273 43 -292 11 -12 12 9 7 122 -5 119 -4 139 12 163 9 15 20 23 24 18
12 -17 45 -16 58 2 12 17 13 17 13 1 0 -14 6 -17 28 -13 15 2 28 5 30 6 1 2
10 3 20 4 11 0 26 7 35 14 12 10 21 11 37 2 17 -9 25 -9 38 3 9 8 22 13 28 10
6 -2 19 6 29 17 24 26 35 25 35 -2 1 -21 2 -22 14 -5 14 18 36 23 36 8 0 -5 9
-13 20 -16 17 -5 20 -15 20 -67 0 -45 5 -66 20 -85 21 -27 27 -73 10 -73 -17
0 -11 -25 10 -38 11 -7 20 -20 20 -30 1 -14 3 -13 13 5 7 12 24 30 38 42 22
17 26 28 28 81 2 64 -15 178 -29 195 -4 6 -11 21 -15 35 -8 29 -60 78 -92 86
-12 3 -24 12 -27 20 -3 8 -13 14 -23 14 -10 0 -34 8 -53 19 -35 18 -117 29
-174 23z m354 -456 c0 -2 -7 -7 -16 -10 -8 -3 -12 -2 -9 4 6 10 25 14 25 6z"/>
<path d="M1505 2329 c-16 -5 -39 -16 -50 -24 -16 -13 -17 -19 -8 -34 14 -23 8
-31 -26 -31 -29 0 -58 -34 -39 -46 6 -4 15 0 19 9 11 19 74 41 95 33 9 -3 21
-3 27 1 6 4 31 7 56 8 58 3 59 3 41 16 -12 8 -10 9 10 7 20 -2 26 -9 28 -36 3
-31 4 -33 17 -15 21 27 19 53 -4 53 -23 0 -36 17 -36 45 0 17 -7 20 -50 22
-27 1 -63 -3 -80 -8z m89 -38 c3 -5 -8 -11 -25 -13 -29 -5 -45 3 -32 16 9 9
51 7 57 -3z"/>
<path d="M1253 2300 c-27 -11 -28 -16 -10 -35 9 -8 19 -10 28 -4 8 5 25 9 39
8 l25 0 -25 -13 c-14 -8 -29 -12 -35 -9 -5 4 -7 3 -3 -2 4 -4 2 -15 -4 -23
-10 -11 -8 -14 12 -12 48 4 55 1 34 -15 -18 -14 -18 -14 8 -15 29 0 55 31 42
52 -4 7 -3 8 4 4 10 -6 32 21 32 39 0 11 -68 35 -97 34 -15 0 -38 -4 -50 -9z"/>
<path d="M1806 2251 c-4 -6 -3 -19 3 -28 9 -17 10 -17 17 0 8 21 -10 45 -20
28z"/>
<path d="M1452 2223 c-8 -3 2 -21 28 -51 22 -25 39 -50 37 -56 -2 -6 -21 -12
-43 -13 -64 -2 -87 -7 -91 -19 -6 -19 63 -27 95 -10 47 24 54 39 36 74 -8 18
-19 34 -24 37 -5 3 -7 12 -4 19 6 15 -14 26 -34 19z"/>
<path d="M1515 2220 c-4 -6 9 -10 34 -10 52 0 61 15 11 18 -21 2 -41 -2 -45
-8z"/>
<path d="M1770 2185 c0 -8 9 -19 20 -25 17 -9 20 -8 20 9 0 10 -7 22 -16 25
-22 8 -24 8 -24 -9z"/>
<path d="M1366 2155 c-16 -12 -17 -15 -4 -15 9 0 18 7 22 15 7 18 6 18 -18 0z"/>
<path d="M1186 2145 c4 -8 11 -15 16 -15 6 0 5 6 -2 15 -7 8 -14 15 -16 15 -2
0 -1 -7 2 -15z"/>
<path d="M1457 2023 c-4 -3 -22 -8 -39 -9 -63 -7 -68 -8 -74 -27 -9 -28 0 -30
40 -6 30 17 54 22 126 23 69 1 86 4 78 14 -11 13 -119 17 -131 5z"/>
<path d="M1450 1950 c0 -13 20 -13 40 0 12 8 9 10 -12 10 -16 0 -28 -4 -28
-10z"/>
<path d="M1645 1914 c-46 -41 -80 -52 -107 -35 -17 10 -26 8 -61 -15 -23 -15
-52 -27 -64 -26 -13 1 -23 -2 -23 -6 0 -10 20 -39 20 -29 0 4 9 3 20 -3 15 -8
19 -17 15 -31 -7 -22 26 -39 79 -39 27 0 37 7 64 45 18 26 37 43 42 40 6 -3
10 0 10 9 0 8 4 16 10 18 5 2 11 12 13 23 2 11 9 30 16 43 21 39 8 42 -34 6z
m-165 -154 c0 -5 -7 -10 -15 -10 -8 0 -15 5 -15 10 0 6 7 10 15 10 8 0 15 -4
15 -10z"/>
<path d="M1760 1833 c1 -5 7 -19 14 -33 12 -21 12 -31 -4 -72 -10 -27 -16 -48
-14 -48 2 0 15 20 29 43 29 51 32 85 8 103 -20 15 -33 18 -33 7z"/>
<path d="M1322 1734 c-22 -27 -50 -74 -62 -106 -12 -32 -26 -58 -32 -58 -6 0
-30 -18 -54 -40 -24 -22 -50 -40 -59 -40 -8 0 -15 -5 -15 -11 0 -8 13 -9 40
-5 38 6 40 5 40 -19 0 -22 2 -24 19 -13 13 8 22 28 26 62 7 51 30 90 46 80 5
-3 6 1 3 9 -3 8 5 18 19 24 19 9 30 7 58 -10 27 -17 31 -18 20 -4 -13 16 -8
22 13 18 10 -2 -2 140 -13 152 -5 5 -27 -13 -49 -39z"/>
<path d="M1749 1633 c-5 -15 -7 -38 -4 -52 4 -15 1 -27 -7 -32 -10 -7 -10 -11
0 -21 11 -11 13 -10 10 2 -5 24 26 18 50 -9 12 -14 20 -19 17 -10 -3 9 1 22
10 29 14 12 18 11 26 -1 6 -10 9 -7 9 14 0 81 -87 143 -111 80z"/>
<path d="M1170 1628 c-12 -22 -12 -22 6 -6 10 10 15 20 12 24 -4 3 -12 -5 -18
-18z"/>
<path d="M1025 1540 c-4 -17 -5 -34 -2 -36 3 -3 8 9 12 26 4 17 5 34 2 36 -3
3 -8 -9 -12 -26z"/>
<path d="M1252 1512 c-7 -24 -12 -51 -10 -60 7 -32 29 26 26 66 l-3 37 -13
-43z"/>
<path d="M1822 1460 c0 -14 2 -19 5 -12 2 6 2 18 0 25 -3 6 -5 1 -5 -13z"/>
<path d="M2118 1453 c-9 -2 -19 -10 -22 -18 -4 -11 2 -11 36 1 83 29 160 8
177 -48 l10 -33 -2 35 c-2 29 -8 38 -37 52 -33 17 -119 23 -162 11z"/>
<path d="M2045 1430 c-3 -6 1 -7 9 -4 18 7 21 14 7 14 -6 0 -13 -4 -16 -10z"/>
<path d="M1245 1420 c-3 -5 1 -10 10 -10 9 0 13 5 10 10 -3 6 -8 10 -10 10 -2
0 -7 -4 -10 -10z"/>
<path d="M1816 1368 c-10 -82 -9 -99 3 -163 10 -54 20 -109 25 -142 1 -7 5
-16 9 -19 4 -4 7 -18 7 -30 0 -17 -4 -22 -15 -18 -11 5 -13 2 -9 -10 8 -20 18
-20 39 0 10 11 13 20 6 28 -5 6 -12 23 -15 36 -53 237 -53 240 -40 285 15 49
17 85 5 85 -5 0 -12 -24 -15 -52z"/>
<path d="M1888 1376 c-5 -27 -8 -58 -8 -70 1 -19 2 -19 11 -3 5 9 9 41 7 70
l-3 52 -7 -49z"/>
<path d="M1045 1390 c-3 -5 -8 -33 -10 -62 -2 -29 -2 -42 1 -28 3 14 9 42 14
63 8 37 6 46 -5 27z"/>
<path d="M1917 1327 c-11 -29 -9 -53 4 -40 6 6 9 21 7 34 -3 21 -4 22 -11 6z"/>
<path d="M1173 1315 c0 -8 6 -15 13 -15 8 0 11 6 8 15 -4 8 -9 15 -13 15 -4 0
-8 -7 -8 -15z"/>
<path d="M860 1300 c8 -5 20 -10 25 -10 6 0 3 5 -5 10 -8 5 -19 10 -25 10 -5
0 -3 -5 5 -10z"/>
<path d="M1655 1254 c-22 -13 -48 -24 -57 -24 -20 0 -22 -8 -9 -29 9 -14 20
-10 56 20 11 10 31 27 45 38 34 27 14 25 -35 -5z"/>
<path d="M1938 1230 c-9 -28 -13 -50 -8 -50 8 0 34 90 27 96 -2 2 -10 -19 -19
-46z"/>
<path d="M1170 1247 c-19 -26 -54 -136 -46 -144 2 -3 12 19 20 48 9 28 25 67
36 86 22 37 14 45 -10 10z"/>
<path d="M1902 1213 c-15 -62 -14 -205 2 -200 11 4 17 97 5 97 -7 0 -4 60 6
113 10 53 1 46 -13 -10z"/>
<path d="M1257 1102 c-15 -46 -30 -103 -34 -128 -5 -39 -4 -44 14 -44 10 0 23
-4 29 -9 5 -4 23 -13 40 -18 39 -14 60 1 69 49 6 32 4 38 -19 53 -25 17 -26
19 -12 40 13 20 13 25 1 35 -25 21 -50 8 -50 -26 0 -17 -8 -38 -17 -48 -10
-10 -18 -23 -18 -29 0 -8 -3 -8 -9 1 -10 17 1 77 23 124 10 20 16 47 14 59 -2
16 -12 -4 -31 -59z"/>
<path d="M1478 1153 c-10 -2 -18 -13 -18 -23 0 -10 -5 -64 -11 -120 -7 -70 -7
-106 0 -113 17 -17 33 42 27 95 -6 55 18 138 40 138 19 0 18 16 -2 24 -9 3
-16 5 -17 5 -1 -1 -10 -3 -19 -6z"/>
<path d="M1011 1113 c-1 -17 4 -35 9 -38 12 -7 12 22 0 50 -7 17 -9 15 -9 -12z"/>
<path d="M1941 1114 c0 -11 3 -14 6 -6 3 7 2 16 -1 19 -3 4 -6 -2 -5 -13z"/>
<path d="M1106 1064 c-9 -24 -7 -126 2 -120 8 5 16 136 8 136 -2 0 -7 -7 -10
-16z"/>
<path d="M1020 1028 c0 -15 -4 -28 -9 -30 -6 -2 -6 -21 -2 -45 7 -38 6 -43
-10 -43 -16 0 -17 -4 -9 -25 8 -20 5 -30 -16 -55 -16 -19 -24 -37 -20 -47 5
-13 10 -9 24 18 9 18 28 39 41 46 14 6 31 24 39 39 8 14 9 23 3 20 -6 -4 -11
0 -11 8 0 9 -4 16 -10 16 -5 0 -10 10 -10 23 0 18 2 19 10 7 8 -12 10 -11 10
8 0 12 -4 22 -8 22 -4 0 -9 12 -10 27 -3 35 -12 43 -12 11z"/>
<path d="M1050 1023 c0 -5 4 -15 10 -23 11 -18 25 -7 17 15 -6 15 -27 21 -27
8z"/>
<path d="M1612 1008 c-7 -7 -12 -20 -12 -30 0 -10 -4 -18 -10 -18 -5 0 -10 -7
-10 -15 0 -8 -4 -15 -10 -15 -24 0 -7 -27 23 -38 46 -16 47 -16 47 17 0 17 5
33 10 36 21 13 5 75 -20 75 -3 0 -11 -5 -18 -12z"/>
<path d="M1795 920 c3 -5 8 -10 11 -10 2 0 4 5 4 10 0 6 -5 10 -11 10 -5 0 -7
-4 -4 -10z"/>
<path d="M1194 898 c-46 -36 -84 -88 -64 -88 5 0 10 6 10 13 0 16 61 77 77 77
7 0 15 5 18 10 11 17 -11 11 -41 -12z"/>
<path d="M2056 876 c3 -8 18 -19 32 -24 15 -6 35 -13 45 -17 25 -10 21 12 -5
29 -13 7 -35 16 -50 20 -21 5 -26 3 -22 -8z"/>
<path d="M1493 839 c-24 -22 -43 -44 -43 -50 0 -5 18 6 39 26 21 20 47 43 57
50 15 11 16 14 4 14 -8 0 -34 -18 -57 -40z"/>
<path d="M1265 830 c-10 -11 -14 -20 -9 -20 5 0 15 9 22 20 7 11 11 20 9 20
-2 0 -12 -9 -22 -20z"/>
<path d="M1920 798 c0 -9 5 -20 10 -23 13 -8 13 5 0 25 -8 13 -10 13 -10 -2z"/>
<path d="M1105 772 c-3 -3 -5 -19 -4 -36 0 -31 0 -31 10 -6 13 31 13 32 32 24
13 -5 14 -10 6 -26 -8 -15 -8 -27 2 -47 l13 -26 4 23 c4 29 28 23 24 -6 -2
-12 6 -26 17 -34 12 -8 18 -18 13 -23 -4 -4 0 -6 8 -3 23 7 18 31 -8 44 -15 8
-20 14 -12 19 6 4 17 1 25 -5 31 -26 13 2 -31 49 -42 44 -85 67 -99 53z"/>
<path d="M1076 707 c4 -16 1 -33 -6 -42 -17 -20 -5 -32 15 -15 29 24 25 3 -5
-23 -40 -36 -38 -48 5 -29 42 20 44 41 9 97 -21 34 -24 36 -18 12z"/>
<path d="M1272 634 c10 -10 20 -15 24 -12 3 4 -5 12 -18 18 -22 12 -22 12 -6
-6z"/>
<path d="M1144 613 c-5 -20 -54 -44 -123 -63 -41 -11 -103 -61 -108 -86 -2
-13 44 1 87 26 26 15 31 17 55 19 8 0 32 17 54 36 21 19 44 35 50 35 18 0 13
-22 -11 -47 -13 -14 -17 -23 -8 -23 7 0 27 16 46 35 18 19 39 35 47 35 17 0
47 -32 47 -49 0 -9 9 -11 30 -6 36 8 37 -1 7 -46 -40 -59 -78 -129 -71 -129 4
0 27 18 51 41 37 34 50 40 74 35 17 -3 29 -1 29 5 0 6 -6 7 -12 4 -7 -3 -3 2
10 11 12 9 22 23 22 30 0 8 5 14 11 14 6 0 8 -12 5 -30 -3 -16 -9 -43 -12 -60
-3 -17 -10 -30 -15 -30 -5 0 -9 -4 -9 -10 0 -5 7 -10 15 -10 8 0 15 -4 15 -10
0 -5 -4 -10 -9 -10 -6 0 -13 5 -16 10 -3 6 -16 10 -28 10 -21 -1 -21 -1 3 -15
19 -11 21 -14 8 -15 -21 0 -23 -11 -6 -28 9 -9 8 -12 -4 -12 -10 0 -21 14 -28
35 -13 40 -29 46 -26 11 0 -13 4 -22 9 -19 4 2 7 -3 7 -11 0 -9 -7 -16 -15
-16 -8 0 -15 6 -15 14 0 8 -5 18 -12 22 -8 5 -9 2 -5 -10 6 -16 3 -17 -20 -12
-27 6 -27 6 -8 -10 11 -8 19 -20 17 -26 -2 -6 5 -8 18 -4 11 3 30 9 42 13 15
4 19 3 14 -5 -5 -8 0 -12 13 -12 11 0 23 5 26 10 5 8 11 8 19 1 9 -8 22 -6 46
5 17 9 46 18 62 19 18 1 38 12 48 25 15 19 18 20 23 6 8 -21 27 -21 27 1 0 15
2 15 19 -1 22 -20 52 -10 70 22 10 16 10 16 11 0 0 -23 4 -23 75 11 l60 28 12
-61 c6 -34 12 -88 12 -121 1 -90 13 -195 22 -195 4 0 5 49 3 109 -4 72 -2 111
5 116 12 7 15 -11 12 -60 -1 -23 0 -27 8 -15 9 12 11 10 11 -12 0 -15 -4 -30
-10 -33 -5 -3 -10 -11 -10 -16 0 -6 5 -7 10 -4 12 7 12 1 1 -47 l-9 -38 50 0
51 0 -6 43 c-3 23 -9 53 -12 67 -5 19 -4 21 3 10 8 -10 10 -5 7 20 -4 45 -15
71 -26 64 -16 -9 -10 8 9 25 9 9 31 39 49 68 24 39 31 61 28 90 -1 21 4 51 12
67 8 16 13 42 11 58 -3 16 -1 31 4 34 4 3 9 -5 9 -18 1 -14 3 -17 6 -7 2 8 0
25 -4 36 -7 19 -13 17 -83 -40 -74 -60 -75 -60 -32 -14 23 26 42 52 42 59 0 7
-14 19 -32 27 -27 12 -37 12 -83 -3 -28 -10 -69 -17 -90 -16 -84 4 -181 0
-200 -8 -18 -8 -43 -17 -115 -38 -22 -6 -23 -5 -11 10 11 13 12 19 2 29 -10 9
-11 9 -6 -3 7 -20 -26 -40 -54 -33 -12 3 -24 16 -27 32 -4 14 -11 32 -17 39
-14 17 -37 15 -37 -4 0 -10 6 -14 15 -10 9 3 15 0 15 -8 0 -8 3 -21 6 -30 10
-26 -23 -19 -92 19 -34 19 -72 35 -83 35 -12 0 -21 6 -21 15 0 22 -61 20 -66
-2z m843 -29 c-3 -3 -12 -4 -19 -1 -8 3 -5 6 6 6 11 1 17 -2 13 -5z m-223 -81
c-13 -13 -28 -23 -34 -23 -6 0 -8 -4 -5 -10 9 -14 -27 -12 -47 3 -14 12 -12
15 22 30 21 9 47 27 57 41 18 24 18 24 24 3 4 -15 -1 -29 -17 -44z m198 30
c-6 -2 -10 -8 -7 -13 2 -4 -13 -19 -35 -34 -44 -29 -49 -42 -22 -50 19 -6 -33
2 -58 8 -8 3 -24 5 -34 5 -18 1 -18 2 -1 21 10 11 24 20 31 20 6 0 36 11 66
25 29 14 58 24 63 24 6 0 4 -3 -3 -6z m-402 -67 c0 -2 -8 -10 -17 -17 -16 -13
-17 -12 -4 4 13 16 21 21 21 13z m124 -33 c38 15 11 -6 -51 -38 -38 -20 -86
-47 -108 -60 -22 -13 -58 -26 -80 -30 -35 -6 -30 -2 44 37 87 46 105 63 77 74
-20 8 -49 -15 -42 -33 3 -7 -1 -13 -11 -13 -9 0 -13 3 -10 6 3 4 2 15 -3 25
-7 12 -6 20 2 25 6 4 8 3 4 -4 -3 -6 -2 -13 4 -17 5 -3 10 -2 10 4 0 6 8 15
19 20 14 8 23 5 39 -9 28 -27 37 -25 18 2 -21 30 -20 41 4 33 13 -4 20 -2 20
6 0 7 11 2 24 -11 15 -13 32 -20 40 -17z m-206 -27 c-2 -1 -12 -8 -22 -16 -18
-14 -19 -14 -7 8 7 12 17 20 22 16 6 -3 9 -7 7 -8z m13 -41 c0 -5 -9 -11 -21
-13 -20 -3 -27 8 -13 22 10 9 34 3 34 -9z m182 -21 c-4 -10 -9 -12 -18 -4 -6
5 -14 9 -16 7 -2 -1 2 3 10 10 17 15 32 8 24 -13z m253 -101 c-10 -10 -19 5
-10 18 6 11 8 11 12 0 2 -7 1 -15 -2 -18z"/>
<path d="M1620 419 c0 -5 5 -7 10 -4 6 3 10 8 10 11 0 2 -4 4 -10 4 -5 0 -10
-5 -10 -11z"/>
<path d="M1320 611 c0 -5 7 -11 14 -14 10 -4 13 -1 9 9 -6 15 -23 19 -23 5z"/>
<path d="M1434 575 c-1 -14 2 -25 7 -25 5 0 8 6 7 13 -2 6 5 11 15 11 21 -2
22 12 1 20 -25 10 -29 7 -30 -19z"/>
<path d="M1212 544 c-18 -32 -147 -155 -169 -160 -28 -7 -29 -25 -5 -47 25
-22 29 -21 36 8 7 29 26 34 26 8 1 -26 24 -53 46 -53 16 0 17 2 4 10 -12 8
-11 10 6 10 32 0 77 39 71 61 -3 11 -1 22 4 25 5 3 9 17 9 32 0 27 -1 27 -34
-13 -19 -22 -38 -36 -43 -32 -4 5 0 14 10 21 9 7 17 18 17 23 0 5 9 18 20 28
11 10 18 21 15 25 -2 3 3 19 11 34 17 35 17 36 -1 36 -7 0 -18 -7 -23 -16z
m-52 -179 c-7 -9 -15 -13 -17 -11 -7 7 7 26 19 26 6 0 6 -6 -2 -15z"/>
<path d="M1368 553 c7 -3 16 -2 19 1 4 3 -2 6 -13 5 -11 0 -14 -3 -6 -6z"/>
<path d="M790 445 c14 -8 30 -14 35 -14 6 0 -1 6 -15 14 -14 8 -29 14 -35 14
-5 0 1 -6 15 -14z"/>
<path d="M968 393 c7 -3 16 -2 19 1 4 3 -2 6 -13 5 -11 0 -14 -3 -6 -6z"/>
<path d="M2130 346 c0 -8 4 -17 9 -20 5 -4 7 3 4 14 -6 23 -13 26 -13 6z"/>
<path d="M967 330 c-3 -11 -1 -17 4 -14 6 3 7 -29 4 -83 -4 -48 -4 -86 -2 -83
3 3 16 37 30 75 14 39 28 77 32 86 4 10 -3 19 -20 27 -35 16 -42 15 -48 -8z"/>
<path d="M1251 331 c-7 -5 -9 -11 -4 -14 4 -3 17 1 28 9 21 16 0 20 -24 5z"/>
</g>
</svg>
